<?xml version="1.0" standalone="no"?>
<!DOCTYPE svg PUBLIC "-//W3C//DTD SVG 20010904//EN"
 "http://www.w3.org/TR/2001/REC-SVG-20010904/DTD/svg10.dtd">
<svg version="1.0" xmlns="http://www.w3.org/2000/svg"
 width="350.000000pt" height="350.000000pt" viewBox="0 0 350.000000 350.000000"
 preserveAspectRatio="xMidYMid meet">
<metadata>
Created by potrace 1.11, written by Peter Selinger 2001-2013
</metadata>
<g transform="translate(0.000000,350.000000) scale(0.100000,-0.100000)"
fill="#000000" stroke="none">
<path d="M0 2518 c0 -793 3 -978 13 -958 30 60 108 64 135 7 12 -25 12 -31 -3
-47 -22 -24 -39 -16 -24 12 17 31 -11 55 -48 42 -22 -7 -29 -17 -31 -41 -2
-18 2 -42 8 -53 24 -45 59 -50 376 -50 164 0 295 2 293 4 -2 3 -117 5 -254 6
-244 2 -320 10 -312 33 4 14 40 25 86 26 25 1 43 11 71 40 21 22 48 45 59 51
18 9 21 8 21 -7 0 -28 -29 -64 -64 -78 -30 -13 -29 -14 24 -9 30 2 105 7 165
11 61 4 98 9 83 11 -16 2 -28 7 -28 11 0 10 48 36 92 50 46 15 73 48 56 69 -9
10 -8 16 3 23 9 6 18 4 25 -6 12 -16 15 -13 49 44 14 23 -84 6 -164 -28 -38
-17 -91 -36 -119 -41 -42 -10 -49 -14 -45 -31 4 -13 0 -19 -10 -19 -21 0 -30
17 -15 26 8 5 6 10 -8 15 -15 5 -10 8 21 13 22 4 87 25 145 48 58 22 128 43
155 47 l50 6 3 72 3 73 -48 31 c-54 34 -98 34 -143 1 -22 -17 -25 -27 -25 -78
0 -82 -12 -97 -36 -44 -17 37 -17 45 -5 74 14 34 54 68 94 80 12 4 22 11 22
15 0 15 -137 71 -173 71 -34 0 -36 -1 -25 -20 7 -10 9 -22 6 -26 -12 -11 -40
5 -35 19 4 10 -6 8 -32 -5 -28 -14 -47 -16 -75 -11 -36 8 -37 9 -19 25 23 21
156 40 204 29 l36 -8 -12 41 c-11 36 -10 50 7 106 29 98 29 98 38 75 15 -36
10 -89 -10 -120 -25 -37 -26 -77 -3 -97 29 -24 224 -118 234 -112 5 3 9 17 9
32 0 56 48 130 152 239 165 171 216 259 229 392 8 76 7 86 -12 112 -11 16 -23
45 -26 64 -7 43 8 46 61 10 20 -14 41 -25 46 -25 4 0 18 16 31 36 21 35 23 36
36 18 9 -12 12 -31 8 -53 -5 -26 -2 -39 14 -55 67 -69 91 -96 91 -103 -1 -23
-24 -38 -67 -43 l-48 -5 2 -38 c2 -21 7 -56 13 -77 l11 -39 68 24 c83 30 106
31 149 5 30 -19 50 -20 292 -20 241 0 260 -1 260 -17 0 -11 10 -2 23 22 13 22
42 69 65 104 24 37 42 76 42 93 0 27 -2 28 -45 28 -25 0 -45 2 -45 5 0 11 80
84 99 90 27 8 91 -52 91 -86 0 -36 -30 -147 -60 -224 -40 -100 -46 -146 -22
-175 l18 -23 65 21 c96 30 122 33 185 16 129 -33 261 -139 320 -256 13 -27 28
-48 32 -48 18 1 45 31 46 51 1 27 24 37 32 14 5 -11 -7 -30 -34 -58 -37 -38
-41 -46 -36 -78 9 -53 -10 -64 -93 -52 -102 15 -132 -2 -133 -74 0 -16 7 -24
23 -27 12 -3 61 -14 109 -25 48 -12 96 -21 107 -21 10 0 38 16 61 35 24 20 53
35 68 35 l25 0 -24 -26 c-13 -14 -40 -34 -59 -44 l-35 -18 25 -10 c73 -28 100
-42 100 -51 0 -5 -26 1 -57 14 -54 22 -132 45 -195 59 -21 5 -28 3 -28 -9 0
-9 -9 -15 -21 -15 -16 0 -20 5 -16 20 4 16 0 20 -19 20 -15 0 -24 -6 -24 -16
0 -15 -2 -15 -24 0 l-24 15 -7 -82 c-4 -45 -6 -86 -4 -92 4 -15 -12 -59 -25
-67 -6 -4 -52 -8 -103 -8 -130 0 -135 22 -10 49 75 16 86 34 90 137 l2 79 -89
0 -90 0 -58 -115 c-32 -63 -60 -123 -62 -132 -5 -16 -19 -18 -117 -18 -84 0
-110 3 -107 13 4 10 39 21 134 42 39 9 71 44 113 125 23 44 40 80 37 80 -15 0
-159 -57 -206 -81 -89 -46 -93 -51 -28 -44 47 5 64 2 100 -16 41 -21 42 -22
21 -32 -16 -7 -42 -5 -90 7 -38 9 -78 16 -91 16 -76 0 -192 -136 -240 -279
-12 -36 -20 -66 -19 -68 8 -8 72 71 96 118 21 43 36 58 76 78 l49 26 676 5
c624 5 678 6 703 23 49 32 49 111 0 123 -30 8 -61 -22 -43 -40 15 -15 12 -26
-9 -26 -35 0 -41 50 -11 80 39 39 122 12 133 -43 2 -12 5 420 6 961 l1 982
-1750 0 -1750 0 0 -982z m1770 477 c15 -44 19 -46 64 -34 21 6 40 8 42 6 3 -3
-4 -20 -15 -38 -12 -19 -21 -37 -21 -41 0 -3 16 -16 35 -28 40 -25 45 -40 13
-40 -13 0 -34 -3 -47 -7 -21 -5 -23 -10 -18 -49 2 -24 2 -44 -1 -44 -3 0 -20
11 -39 26 l-33 25 -33 -25 c-19 -15 -36 -26 -39 -26 -3 0 -3 20 -1 44 5 39 3
44 -18 49 -13 4 -34 7 -46 7 -33 0 -28 15 12 40 19 12 35 25 35 28 0 4 -9 22
-21 41 -11 18 -18 35 -15 38 2 2 21 0 42 -6 45 -12 49 -10 64 34 6 19 15 35
20 35 5 0 14 -16 20 -35z m158 -334 c8 -5 12 -17 10 -27 -3 -18 -15 -19 -183
-19 -168 0 -180 1 -183 19 -2 10 2 22 10 27 7 5 85 9 173 9 88 0 166 -4 173
-9z m1135 -247 c18 -37 23 -109 8 -118 -13 -9 -41 69 -41 114 0 49 10 50 33 4z
m-2593 -3 c27 -52 0 -175 -32 -143 -11 11 -10 14 2 22 8 5 18 6 24 3 5 -4 2 4
-7 18 -10 14 -17 43 -17 71 0 50 12 62 30 29z m2678 -49 c-4 -19 -19 -24 -37
-13 -12 8 -12 12 -2 25 15 18 43 10 39 -12z m-2735 -48 c-7 -18 -33 -18 -33
-1 0 19 10 27 25 20 8 -2 11 -11 8 -19z m2777 -19 c0 -16 -27 -27 -36 -14 -3
5 -3 16 0 24 6 17 36 9 36 -10z m-60 1 c0 -8 -5 -18 -11 -22 -14 -8 -33 11
-25 25 10 16 36 13 36 -3z m-2600 -17 c0 -24 -23 -21 -28 4 -2 10 3 17 12 17
10 0 16 -9 16 -21z m2518 -2 c2 -12 -3 -17 -17 -17 -12 0 -21 6 -21 13 0 31
32 34 38 4z m-253 -17 c19 -38 20 -120 1 -120 -23 0 -38 53 -31 104 4 25 9 46
11 46 2 0 10 -13 19 -30z m-2378 4 c9 -23 -13 -40 -32 -24 -12 10 -13 16 -4
26 15 18 28 18 36 -2z m2536 -23 c18 -30 23 -106 9 -115 -10 -6 -52 73 -52 97
0 21 11 47 19 47 4 0 14 -13 24 -29z m134 13 c8 -21 -13 -42 -28 -27 -13 13
-5 43 11 43 6 0 13 -7 17 -16z m-2621 -26 c4 -6 -1 -17 -10 -23 -15 -12 -15
-15 9 -43 30 -36 31 -42 5 -42 -19 0 -100 73 -100 91 0 12 17 11 40 -1 14 -7
19 -5 23 10 6 22 22 26 33 8z m49 -9 c0 -7 -8 -15 -17 -17 -18 -3 -25 18 -11
32 10 10 28 1 28 -15z m2594 -21 c-17 -34 -41 -58 -71 -74 -25 -13 -28 -13
-28 2 0 21 73 94 94 94 14 0 15 -4 5 -22z m15 -94 c-10 -20 -31 -45 -48 -55
-56 -34 -43 8 27 87 38 44 49 27 21 -32z m-195 32 c9 -10 8 -16 -4 -26 -19
-16 -41 1 -32 24 8 20 21 20 36 2z m-2511 -33 l37 -28 -27 -3 c-28 -3 -128 45
-128 62 0 18 82 -3 118 -31z m282 -3 c0 -5 -5 -12 -11 -16 -14 -8 -33 11 -25
25 7 11 36 4 36 -9z m-70 -5 c0 -8 -7 -15 -15 -15 -26 0 -18 20 13 29 1 1 2
-6 2 -14z m-272 -33 c2 -7 -6 -12 -17 -12 -21 0 -27 11 -14 24 9 9 26 2 31
-12z m2587 9 c3 -5 1 -13 -5 -16 -15 -9 -43 3 -35 15 8 13 32 13 40 1z m55 -6
c0 -8 -6 -15 -14 -15 -17 0 -28 14 -19 24 12 12 33 6 33 -9z m-2340 -19 c0 -8
-5 -18 -11 -22 -14 -8 -33 11 -25 25 10 16 36 13 36 -3z m60 7 c0 -5 -5 -15
-10 -23 -7 -11 -12 -12 -21 -3 -6 6 -8 16 -5 22 8 12 36 15 36 4z m2440 -18
c0 -8 -6 -15 -14 -15 -17 0 -28 14 -19 24 12 12 33 6 33 -9z m62 -17 c-15 -15
-26 -4 -18 18 5 13 9 15 18 6 9 -9 9 -15 0 -24z m-2689 -5 c9 -9 -13 -34 -24
-27 -14 8 -11 34 4 34 8 0 17 -3 20 -7z m2562 -11 c0 -18 -20 -15 -23 4 -3 10
1 15 10 12 7 -3 13 -10 13 -16z m92 -8 c8 -20 -8 -36 -26 -25 -15 10 -8 41 9
41 6 0 13 -7 17 -16z m-2752 -24 c0 -7 -6 -15 -12 -17 -8 -3 -13 4 -13 17 0
13 5 20 13 18 6 -3 12 -11 12 -18z m2640 -2 c25 -12 45 -26 45 -30 0 -15 -68
-8 -99 10 -35 19 -39 29 -13 35 9 3 18 5 19 6 1 0 23 -9 48 -21z m-2585 -13
c0 -8 -7 -15 -15 -15 -8 0 -15 7 -15 15 0 8 7 15 15 15 8 0 15 -7 15 -15z m95
-5 c0 -8 -8 -16 -17 -18 -13 -2 -18 3 -18 18 0 15 5 20 18 18 9 -2 17 -10 17
-18z m95 -46 c0 -9 -5 -14 -12 -12 -18 6 -21 28 -4 28 9 0 16 -7 16 -16z m80
-34 c0 -6 -19 -20 -42 -30 -73 -33 -104 -22 -52 19 28 22 94 29 94 11z m-424
-48 c7 -4 26 -31 43 -59 35 -60 22 -72 -29 -25 -43 39 -55 111 -14 84z m2855
-59 c-26 -44 -93 -103 -118 -103 -10 0 -4 14 17 45 34 49 66 75 93 75 14 0 16
-4 8 -17z m-2926 -31 c0 -18 -20 -15 -23 4 -3 10 1 15 10 12 7 -3 13 -10 13
-16z m63 -15 c2 -10 -3 -17 -12 -17 -18 0 -29 16 -21 31 9 14 29 6 33 -14z
m245 4 c7 -7 2 -13 -16 -20 -31 -12 -89 2 -108 26 -13 15 -9 16 50 10 35 -3
68 -10 74 -16z m2672 0 c3 -5 1 -13 -5 -16 -15 -9 -43 3 -35 15 8 13 32 13 40
1z m69 1 c2 -4 1 -14 -4 -22 -7 -11 -12 -12 -21 -3 -6 6 -8 16 -5 22 8 13 23
14 30 3z m-3097 -27 c7 -20 -2 -29 -21 -22 -9 4 -13 13 -10 22 8 19 23 19 31
0z m179 -6 c8 -14 -11 -33 -25 -25 -11 7 -4 36 9 36 5 0 12 -5 16 -11z m2094
-2 c0 -8 -3 -17 -7 -20 -9 -9 -34 13 -27 24 8 14 34 11 34 -4z m-2200 -7 c11
-7 12 -12 3 -21 -16 -16 -44 -4 -37 16 7 17 13 18 34 5z m56 -1 c10 -17 -13
-36 -27 -22 -12 12 -4 33 11 33 5 0 12 -5 16 -11z m2212 -12 c2 -12 -3 -17
-17 -17 -12 0 -21 6 -21 13 0 31 32 34 38 4z m623 -10 c-5 -5 -17 -7 -26 -3
-14 5 -15 9 -5 21 10 12 16 13 27 4 9 -8 10 -16 4 -22z m85 12 c9 -16 -12 -33
-31 -25 -14 5 -15 9 -5 21 15 18 26 19 36 4z m-508 -26 c2 -8 -5 -13 -17 -13
-12 0 -21 6 -21 16 0 18 31 15 38 -3z m-298 -8 c0 -8 -7 -15 -15 -15 -8 0 -15
7 -15 15 0 8 7 15 15 15 8 0 15 -7 15 -15z m-1765 -16 c0 -7 -8 -15 -17 -17
-18 -3 -25 18 -11 32 10 10 28 1 28 -15z m1825 6 c0 -8 -7 -15 -15 -15 -8 0
-15 7 -15 15 0 8 7 15 15 15 8 0 15 -7 15 -15z m288 -8 c2 -10 -3 -17 -12 -17
-18 0 -29 16 -21 31 9 14 29 6 33 -14z m60 5 c2 -7 -6 -12 -17 -12 -21 0 -27
11 -14 24 9 9 26 2 31 -12z m400 2 c43 -9 40 -19 -8 -32 -38 -9 -95 -2 -125
16 -15 10 48 32 75 27 14 -3 40 -8 58 -11z m-2923 -9 c-27 -21 -84 -36 -112
-29 -50 13 6 43 82 43 46 0 49 -1 30 -14z m203 -8 c2 -10 -3 -17 -12 -17 -18
0 -29 16 -21 31 9 14 29 6 33 -14z m2432 9 c0 -8 -4 -17 -8 -20 -13 -8 -35 11
-28 23 10 16 36 14 36 -3z m73 -23 c9 -9 -13 -34 -24 -27 -14 8 -11 34 4 34 8
0 17 -3 20 -7z m-53 -29 c0 -14 -21 -19 -33 -7 -9 9 13 34 24 27 5 -3 9 -12 9
-20z m-2485 6 c3 -5 4 -14 0 -20 -8 -13 -35 -1 -35 16 0 16 26 19 35 4z m2667
-10 c18 -13 28 -16 36 -8 5 5 15 7 21 4 16 -10 13 -33 -5 -40 -8 -3 -12 -10
-9 -16 9 -15 -18 -12 -42 5 -12 9 -31 29 -43 45 -21 29 -21 30 -2 30 11 0 30
-9 44 -20z m126 3 c5 -18 -28 -29 -38 -12 -5 7 -6 17 -3 22 7 12 35 5 41 -10z
m-2852 -4 c10 -17 -13 -36 -27 -22 -12 12 -4 33 11 33 5 0 12 -5 16 -11z
m2428 -10 c32 -25 62 -79 45 -79 -23 0 -80 43 -94 71 -15 27 -14 29 3 29 11 0
31 -9 46 -21z m166 -19 c0 -5 -5 -12 -11 -16 -14 -8 -33 11 -25 25 7 11 36 4
36 -9z m265 -10 c4 -6 1 -18 -6 -26 -11 -13 -14 -13 -27 0 -8 8 -11 19 -8 25
9 14 33 14 41 1z"/>
<path d="M1639 2636 c16 -19 65 -22 59 -3 -3 6 -20 13 -38 15 -30 3 -32 2 -21
-12z"/>
<path d="M1769 2636 c16 -19 65 -22 59 -3 -3 6 -20 13 -38 15 -30 3 -32 2 -21
-12z"/>
<path d="M1900 2635 c12 -15 30 -12 30 6 0 5 -10 9 -21 9 -18 0 -19 -2 -9 -15z"/>
<path d="M1400 2265 c0 -86 4 -133 15 -158 19 -47 19 -97 -1 -125 -13 -18 -15
-43 -12 -117 3 -85 5 -97 28 -119 37 -36 303 -200 321 -199 9 1 85 45 169 99
122 78 155 104 166 130 11 26 14 99 14 324 l0 291 -350 -2 -350 -1 0 -123z
m30 105 c0 -5 -4 -10 -10 -10 -5 0 -10 5 -10 10 0 6 5 10 10 10 6 0 10 -4 10
-10z m236 -20 c60 0 74 3 74 16 0 8 5 12 10 9 6 -4 8 -11 5 -16 -4 -5 25 -9
69 -9 62 0 76 3 76 16 0 8 5 12 10 9 6 -4 8 -11 5 -16 -4 -5 25 -9 69 -9 l76
0 0 -262 c0 -309 -1 -312 -93 -366 -44 -27 -55 -37 -47 -47 8 -9 8 -15 0 -20
-5 -3 -10 1 -10 9 0 22 -3 21 -79 -24 -37 -22 -75 -40 -84 -40 -21 0 -257 142
-282 170 -19 21 -20 40 -23 301 l-3 279 71 0 c38 0 69 3 69 8 -3 17 4 25 8 10
4 -15 16 -18 79 -18z m414 20 c0 -5 -4 -10 -10 -10 -5 0 -10 5 -10 10 0 6 5
10 10 10 6 0 10 -4 10 -10z m-654 -237 c-10 -10 -19 5 -10 18 6 11 8 11 12 0
2 -7 1 -15 -2 -18z m659 18 c3 -5 1 -12 -5 -16 -5 -3 -10 1 -10 9 0 18 6 21
15 7z m-655 -221 c0 -5 -4 -10 -10 -10 -5 0 -10 5 -10 10 0 6 5 10 10 10 6 0
10 -4 10 -10z m655 1 c3 -5 1 -12 -5 -16 -5 -3 -10 1 -10 9 0 18 6 21 15 7z
m-630 -170 c3 -5 1 -12 -5 -16 -5 -3 -10 1 -10 9 0 18 6 21 15 7z m605 -7 c0
-8 -5 -12 -10 -9 -6 4 -8 11 -5 16 9 14 15 11 15 -7z m-470 -90 c0 -8 -5 -12
-10 -9 -6 4 -8 11 -5 16 9 14 15 11 15 -7z m170 -94 c0 -5 -4 -10 -10 -10 -5
0 -10 5 -10 10 0 6 5 10 10 10 6 0 10 -4 10 -10z"/>
<path d="M1460 2270 l0 -60 30 0 30 0 0 60 0 60 -30 0 -30 0 0 -60z"/>
<path d="M1600 2270 c0 -53 2 -60 20 -60 18 0 20 7 20 60 0 53 -2 60 -20 60
-18 0 -20 -7 -20 -60z"/>
<path d="M1670 2165 l0 -165 80 0 80 0 0 165 0 165 -80 0 -80 0 0 -165z m110
109 c0 -27 -20 -54 -40 -54 -20 0 -40 27 -40 53 0 20 41 37 63 25 9 -5 17 -16
17 -24z m-10 -90 c0 -14 -21 -19 -33 -7 -9 9 13 34 24 27 5 -3 9 -12 9 -20z
m-50 -60 c0 -8 -7 -14 -15 -14 -15 0 -21 21 -9 33 10 9 24 -2 24 -19z m80 11
c0 -8 -7 -15 -15 -15 -8 0 -15 7 -15 15 0 8 7 15 15 15 8 0 15 -7 15 -15z m0
-55 c0 -5 -4 -10 -10 -10 -5 0 -10 5 -10 10 0 6 5 10 10 10 6 0 10 -4 10 -10z
m-55 -8 c6 -4 10 -13 9 -19 -1 -7 -2 -17 -3 -23 -2 -19 -40 -10 -46 11 -9 28
17 48 40 31z"/>
<path d="M1710 2270 c0 -5 14 -10 30 -10 17 0 30 5 30 10 0 6 -13 10 -30 10
-16 0 -30 -4 -30 -10z"/>
<path d="M1860 2276 c0 -46 3 -54 21 -59 20 -5 21 -3 14 38 l-6 44 29 -10 c20
-7 38 -6 57 1 35 13 38 10 25 -24 -15 -40 -13 -55 8 -49 15 4 18 -3 18 -50 0
-47 -2 -53 -19 -49 -18 5 -18 -4 0 -70 5 -21 5 -21 -35 -7 -22 8 -36 7 -52 -1
-30 -16 -34 -8 -22 40 10 40 7 45 -22 34 -12 -5 -16 -20 -16 -60 l0 -54 90 0
90 0 0 165 0 165 -90 0 -90 0 0 -54z"/>
<path d="M1550 2290 c0 -5 5 -10 10 -10 6 0 10 5 10 10 0 6 -4 10 -10 10 -5 0
-10 -4 -10 -10z"/>
<path d="M1863 2165 c0 -22 2 -30 4 -17 2 12 2 30 0 40 -3 9 -5 -1 -4 -23z"/>
<path d="M1539 2190 c0 -3 -2 -12 -3 -20 -3 -10 5 -15 25 -16 32 -1 37 7 14
26 -12 10 -15 10 -15 -1 0 -11 -2 -11 -10 1 -5 8 -10 13 -11 10z"/>
<path d="M1981 2176 c-1 -15 -7 -17 -36 -14 -24 3 -35 0 -35 -9 0 -19 69 -17
76 2 3 8 4 20 1 27 -3 8 -6 6 -6 -6z"/>
<path d="M1476 2171 c-4 -5 -2 -12 3 -15 5 -4 12 -2 15 3 4 5 2 12 -3 15 -5 4
-12 2 -15 -3z"/>
<path d="M1616 2171 c-4 -5 -2 -12 3 -15 5 -4 12 -2 15 3 4 5 2 12 -3 15 -5 4
-12 2 -15 -3z"/>
<path d="M1460 2060 l0 -60 30 0 30 0 0 60 0 60 -30 0 -30 0 0 -60z"/>
<path d="M1600 2060 c0 -53 2 -60 20 -60 18 0 20 7 20 60 0 53 -2 60 -20 60
-18 0 -20 -7 -20 -60z"/>
<path d="M1550 2040 c0 -5 5 -10 10 -10 6 0 10 5 10 10 0 6 -4 10 -10 10 -5 0
-10 -4 -10 -10z"/>
<path d="M1460 1903 c0 -43 6 -89 13 -103 7 -13 47 -46 90 -72 l77 -48 0 81
c0 67 -2 79 -13 70 -8 -6 -18 -7 -22 -3 -5 4 -5 1 -1 -6 4 -7 2 -19 -4 -27 -7
-8 -9 -15 -4 -15 5 0 2 -5 -7 -10 -16 -9 -62 -2 -55 9 6 9 -15 34 -39 47 -17
10 -20 22 -20 78 0 36 3 66 7 66 12 0 38 -43 38 -62 0 -10 4 -18 10 -18 5 0 7
7 4 15 -9 22 32 20 45 -2 9 -16 10 -15 11 8 0 14 9 34 21 45 20 18 20 18 16
-6 -2 -14 -1 -34 4 -45 5 -14 8 -7 8 28 l1 47 -90 0 -90 0 0 -77z"/>
<path d="M1671 1893 c0 -54 3 -80 8 -68 5 11 6 26 4 33 -7 17 5 15 60 -12 40
-20 47 -21 42 -7 -4 9 -9 31 -12 48 -6 37 16 54 42 33 13 -11 15 -7 15 24 l0
36 -80 0 -80 0 1 -87z"/>
<path d="M1860 1950 c0 -16 5 -30 10 -30 6 0 10 -7 10 -15 0 -8 4 -15 10 -15
5 0 7 7 3 16 -7 19 13 34 45 34 19 0 22 -5 22 -35 0 -29 4 -35 21 -35 19 0 19
1 4 17 -16 16 -16 17 1 30 24 17 44 17 44 -2 0 -8 -3 -15 -7 -15 -5 0 -8 -17
-7 -38 0 -40 -21 -83 -40 -81 -6 1 -19 -1 -29 -6 -10 -4 -21 -4 -25 0 -4 4 -1
10 6 12 14 6 16 33 2 33 -6 0 -15 -11 -20 -25 -6 -15 -17 -25 -30 -25 -17 0
-20 -6 -20 -45 l0 -45 75 46 c92 56 105 78 105 179 l0 75 -90 0 -90 0 0 -30z"/>
<path d="M1813 1893 c-17 -6 -16 -32 2 -63 14 -24 14 -24 15 23 0 26 -1 47 -2
46 -2 0 -9 -3 -15 -6z"/>
<path d="M1860 1824 c0 -49 14 -52 31 -7 6 18 6 30 -2 39 -20 25 -29 15 -29
-32z"/>
<path d="M1673 1727 c2 -67 2 -68 40 -90 l37 -21 38 21 c36 21 37 23 39 85 1
35 -1 56 -4 48 -10 -27 -36 -40 -80 -40 -40 0 -45 3 -58 33 -15 31 -15 31 -12
-36z"/>
<path d="M1344 2264 c-15 -35 -14 -38 5 -58 l21 -20 0 57 c0 31 -2 57 -6 57
-3 0 -12 -16 -20 -36z"/>
<path d="M1281 2107 c-42 -119 -60 -183 -69 -247 -6 -41 -14 -85 -17 -96 -6
-19 4 -28 80 -69 48 -26 123 -71 168 -101 80 -54 96 -56 97 -14 0 8 3 24 6 35
4 16 -8 28 -66 64 -99 61 -104 73 -108 258 -4 159 -4 159 -55 181 -25 11 -28
10 -36 -11z m69 -244 c-1 -27 -7 -61 -14 -78 l-14 -30 -10 26 c-10 24 -1 96
14 121 13 21 24 4 24 -39z m-65 -124 c0 -7 -8 -15 -17 -17 -18 -3 -25 18 -11
32 10 10 28 1 28 -15z m45 -25 c0 -17 -22 -14 -28 4 -2 7 3 12 12 12 9 0 16
-7 16 -16z"/>
<path d="M2128 1935 c-6 -184 -11 -196 -117 -260 -60 -37 -79 -54 -74 -65 3
-8 8 -32 11 -52 l4 -37 48 38 c60 48 181 110 295 152 50 18 95 37 101 41 6 5
17 28 24 53 10 36 10 51 0 75 -11 27 -15 29 -49 24 -28 -4 -44 0 -71 18 -19
13 -48 30 -63 38 -29 14 -58 44 -88 90 -16 24 -17 18 -21 -115z m143 -64 c12
-40 6 -91 -10 -91 -15 0 -30 58 -24 95 7 46 19 44 34 -4z m-51 -86 c0 -8 -7
-15 -15 -15 -8 0 -15 7 -15 15 0 8 7 15 15 15 8 0 15 -7 15 -15z m88 -28 c2
-10 -3 -17 -12 -17 -18 0 -29 16 -21 31 9 14 29 6 33 -14z m-124 -18 c-7 -13
-31 -11 -40 2 -9 16 18 30 33 17 7 -6 10 -14 7 -19z m46 -29 c0 -11 -6 -20
-14 -20 -18 0 -29 16 -21 30 11 18 35 11 35 -10z"/>
<path d="M2523 1876 c3 -7 -6 -30 -20 -51 -13 -20 -22 -39 -19 -42 8 -8 116
37 116 49 0 5 -11 20 -25 33 -26 27 -61 34 -52 11z"/>
<path d="M2555 1770 l-40 -19 48 0 c41 -1 47 2 47 19 0 24 -3 24 -55 0z"/>
<path d="M1003 1708 c-11 -13 -26 -41 -33 -63 -29 -93 -102 -181 -162 -195
-20 -5 46 -9 172 -10 113 -1 279 -5 370 -8 163 -7 165 -7 204 -37 24 -18 48
-50 62 -80 19 -43 94 -132 94 -112 0 4 -18 42 -39 85 -49 97 -116 184 -186
243 -66 54 -218 138 -209 115 4 -11 0 -16 -11 -16 -12 0 -15 5 -10 20 5 15 -2
23 -35 40 -23 12 -43 20 -45 18 -11 -15 -35 -110 -35 -144 0 -63 10 -67 152
-59 135 8 195 -2 230 -37 30 -30 11 -38 -62 -28 -36 5 -147 10 -248 10 -211 0
-203 -4 -182 94 16 75 27 160 22 175 -6 18 -27 13 -49 -11z m252 -109 c0 -7
-8 -15 -17 -17 -18 -3 -25 18 -11 32 10 10 28 1 28 -15z m63 -6 c-2 -10 -10
-18 -18 -18 -8 0 -16 8 -18 18 -2 12 3 17 18 17 15 0 20 -5 18 -17z"/>
<path d="M741 1608 c-30 -33 -68 -67 -85 -75 l-31 -14 40 6 c56 9 75 22 72 48
-2 18 2 22 25 19 22 -2 29 2 34 22 14 56 -1 55 -55 -6z"/>
<path d="M1578 1584 c2 -19 -1 -41 -8 -49 -14 -16 -12 -19 52 -104 27 -35 60
-86 74 -113 43 -84 38 -45 -5 44 -43 88 -48 118 -30 164 11 30 3 39 -61 77
l-26 16 4 -35z"/>
<path d="M1873 1586 c-23 -16 -29 -26 -22 -37 21 -34 0 -134 -46 -217 -26 -46
-32 -72 -16 -72 5 0 18 24 30 53 12 28 36 75 54 102 29 45 32 58 32 122 0 40
0 73 0 72 0 0 -14 -10 -32 -23z"/>
<path d="M1780 1530 c-31 -18 -36 -18 -57 -5 -12 8 -24 15 -25 15 -2 0 -3 -35
-3 -78 0 -77 14 -122 48 -151 13 -10 20 -6 44 25 26 35 28 44 28 126 0 48 0
88 0 87 0 0 -16 -9 -35 -19z"/>
<path d="M3490 1506 c0 -26 -51 -75 -88 -85 -20 -5 -327 -13 -682 -16 -367 -4
-662 -11 -684 -17 -35 -8 -94 -53 -84 -63 2 -3 29 5 59 16 72 28 179 28 284 1
111 -29 266 -84 350 -122 172 -79 172 -79 171 -62 0 9 7 18 18 20 15 3 18 0
12 -21 -5 -23 -2 -26 57 -41 34 -9 91 -23 127 -30 36 -8 53 -14 38 -15 -40 -2
-165 24 -233 48 -71 25 -65 25 -65 5 0 -9 -8 -18 -18 -21 -14 -3 -18 -11 -14
-29 4 -23 5 -23 18 -7 10 14 15 15 25 6 15 -15 4 -44 -14 -37 -11 4 -16 -9
-21 -53 -6 -51 -47 -163 -60 -163 -2 0 4 25 15 55 32 92 35 162 9 223 -12 29
-37 65 -55 81 -34 29 -143 76 -153 66 -3 -3 8 -20 26 -38 35 -36 56 -83 47
-106 -7 -18 -46 37 -64 90 -6 20 -22 46 -35 58 -25 24 -208 81 -259 81 l-30 0
21 -23 c29 -31 49 -82 57 -149 4 -31 17 -71 29 -89 11 -18 27 -42 33 -53 11
-19 13 -16 13 26 0 38 5 50 26 67 50 39 130 18 154 -39 11 -26 10 -39 -10 -98
-13 -37 -28 -94 -34 -126 -9 -46 -17 -64 -39 -80 -43 -32 -185 -29 -338 7 -64
15 -139 30 -165 32 l-49 6 35 -18 c41 -21 51 -60 26 -98 -9 -13 -16 -26 -16
-28 0 -2 20 -18 45 -36 40 -28 72 -40 178 -65 22 -5 26 -10 18 -20 -6 -7 -8
-16 -4 -19 11 -12 -32 -8 -82 7 -26 8 -58 24 -70 36 -13 12 -38 25 -57 30 -18
4 -41 11 -50 15 -27 11 -22 -7 17 -64 19 -28 35 -53 35 -56 0 -14 -42 -3 -61
16 -17 17 -25 19 -47 10 -41 -16 -147 -18 -166 -2 -25 21 -20 82 9 125 22 33
23 35 5 26 -11 -6 -40 -51 -65 -100 -39 -77 -49 -90 -70 -90 -33 0 -32 9 10
74 19 30 35 58 35 61 0 10 -85 -8 -120 -25 -32 -16 -67 -27 -143 -44 -25 -6
-28 -4 -22 14 4 13 2 20 -6 20 -8 0 -9 3 -3 9 5 5 51 16 103 26 89 16 161 41
161 56 0 3 -7 12 -15 19 -12 10 -12 18 5 63 11 29 20 54 20 56 0 9 -123 -12
-234 -41 -81 -21 -147 -31 -199 -32 -71 -1 -80 1 -98 23 -11 14 -19 39 -19 61
l0 38 -53 0 c-59 -1 -117 10 -117 22 0 17 88 21 126 5 20 -8 38 -14 40 -12 2
2 -5 39 -16 82 -24 96 -16 136 32 161 61 32 137 -7 124 -63 -19 -74 -19 -83
-2 -83 10 0 15 4 12 9 -3 5 5 25 19 45 23 33 24 43 19 109 -6 62 -3 81 15 122
12 28 32 61 44 74 l22 24 -56 -6 c-66 -6 -206 -61 -232 -89 -12 -14 -17 -37
-17 -78 0 -43 -5 -64 -20 -81 l-19 -24 -1 41 c0 23 7 61 15 84 8 24 13 45 11
48 -11 10 -128 -63 -145 -92 -26 -43 -44 -130 -38 -182 6 -56 -10 -48 -18 10
-6 39 8 117 29 168 7 15 0 15 -61 -6 -51 -17 -68 -27 -68 -41 0 -26 -25 -31
-32 -6 -5 22 -3 21 -140 5 -23 -3 -44 -11 -47 -19 -8 -22 -36 -18 -36 5 0 17
-7 20 -50 20 -40 0 -55 -5 -83 -30 -39 -34 -77 -50 -115 -50 l-27 1 36 33 c25
23 49 35 82 40 26 4 47 13 47 19 0 9 34 11 131 9 131 -4 274 12 263 29 -3 5
-13 9 -22 9 -9 0 -39 11 -67 25 -27 13 -55 25 -61 25 -11 0 -74 62 -74 72 0 3
17 2 38 -2 23 -6 48 -22 67 -43 68 -79 158 -89 264 -30 l66 37 -45 8 c-24 4
-53 17 -64 28 l-20 20 45 0 c31 0 55 -7 72 -20 14 -11 33 -20 44 -20 27 1 133
59 108 60 -11 0 -35 9 -53 20 -18 11 -41 20 -52 20 -11 0 -20 5 -20 10 0 20
110 11 151 -12 35 -20 44 -21 87 -10 127 31 247 23 351 -24 l53 -24 -14 22
c-8 12 -27 31 -42 43 -27 20 -43 20 -724 25 -678 5 -698 6 -732 25 -19 12 -43
36 -52 55 -17 34 -18 5 -18 -722 l0 -758 1750 0 1750 0 0 760 c0 418 -2 760
-5 760 -3 0 -5 -6 -5 -14z m-920 -144 c0 -13 -63 -32 -103 -32 -78 0 -19 38
61 39 23 1 42 -3 42 -7z m-1570 -48 c0 -9 -5 -14 -12 -12 -18 6 -21 28 -4 28
9 0 16 -7 16 -16z m1554 -2 c9 -14 -12 -35 -28 -29 -23 9 -20 37 3 37 11 0 22
-4 25 -8z m212 -11 c-11 -17 -75 -41 -109 -41 -46 0 -55 15 -20 34 30 16 138
22 129 7z m-2056 -20 c0 -12 -26 -32 -33 -25 -9 10 4 34 19 34 8 0 14 -4 14
-9z m50 -16 c0 -8 -4 -15 -9 -15 -13 0 -22 16 -14 24 11 11 23 6 23 -9z m-473
-20 c24 -17 68 -83 60 -91 -11 -11 -47 18 -77 61 -32 46 -25 59 17 30z m2658
-5 c9 -14 -50 -40 -106 -47 -61 -7 -64 7 -6 36 44 22 102 28 112 11z m-175
-15 c0 -16 -27 -32 -37 -22 -3 4 -3 13 0 22 8 20 37 20 37 0z m-2317 -6 c28
-15 77 -60 77 -72 0 -20 -56 6 -92 44 -38 39 -32 52 15 28z m275 -1 c-7 -19
-38 -22 -38 -4 0 10 9 16 21 16 12 0 19 -5 17 -12z m62 -8 c0 -14 -15 -19 -29
-10 -17 10 -5 31 14 23 8 -3 15 -9 15 -13z m2310 14 c0 -19 -46 -76 -71 -89
-26 -14 -29 -14 -29 1 0 18 71 94 89 94 6 0 11 -3 11 -6z m-2900 -40 c0 -8 -7
-14 -15 -14 -15 0 -21 21 -9 33 10 9 24 -2 24 -19z m3035 -1 c-7 -32 -52 -83
-72 -83 -18 0 -16 9 8 50 36 60 76 81 64 33z m-3095 -7 c0 -8 -4 -17 -8 -20
-13 -8 -35 11 -28 23 10 16 36 14 36 -3z m128 -9 c2 -12 -3 -17 -17 -17 -12 0
-21 6 -21 13 0 31 32 34 38 4z m172 -12 c0 -8 -7 -15 -15 -15 -8 0 -15 7 -15
15 0 8 7 15 15 15 8 0 15 -7 15 -15z m2708 -2 c5 -17 -26 -29 -40 -15 -6 6 -7
15 -3 22 9 14 37 9 43 -7z m127 7 c9 -15 -3 -30 -20 -24 -7 3 -11 12 -8 20 6
16 19 18 28 4z m65 -6 c0 -9 -7 -14 -17 -12 -25 5 -28 28 -4 28 12 0 21 -6 21
-16z m-3166 -35 c-8 -14 -34 -11 -34 4 0 8 3 17 7 20 9 9 34 -13 27 -24z m66
6 c0 -18 -27 -26 -39 -11 -7 9 -7 16 0 23 14 14 39 6 39 -12z m2849 -21 c-9
-11 -15 -12 -25 -3 -11 9 -12 15 -3 25 9 11 15 12 25 3 11 -9 12 -15 3 -25z
m-2339 0 c0 -8 -6 -14 -14 -14 -18 0 -29 27 -13 33 16 6 27 -1 27 -19z m2510
-10 c0 -8 -5 -14 -12 -14 -7 0 3 -16 22 -35 l34 -35 -29 0 c-15 0 -49 12 -74
28 l-46 27 33 3 c23 2 32 8 32 21 0 10 3 20 6 24 10 9 34 -4 34 -19z m63 20
c9 -9 -4 -34 -18 -34 -14 0 -27 25 -18 34 4 3 12 6 18 6 6 0 14 -3 18 -6z
m-503 -19 c0 -8 -9 -15 -20 -15 -11 0 -20 7 -20 15 0 8 9 15 20 15 11 0 20 -7
20 -15z m-2405 -35 c0 -22 -29 -18 -33 3 -3 14 1 18 15 15 10 -2 18 -10 18
-18z m64 -34 c-25 -43 -79 -77 -79 -51 0 20 92 113 97 98 2 -6 -6 -27 -18 -47z
m187 33 c8 -14 -11 -33 -25 -25 -11 7 -4 36 9 36 5 0 12 -5 16 -11z m72 -12
c2 -10 -3 -17 -12 -17 -18 0 -29 16 -21 31 9 14 29 6 33 -14z m2117 2 c0 -7
-8 -15 -17 -17 -18 -3 -25 18 -11 32 10 10 28 1 28 -15z m197 -16 c30 -32 52
-72 44 -80 -14 -15 -96 71 -96 102 0 14 29 2 52 -22z m76 4 c2 -12 -3 -17 -17
-17 -12 0 -21 6 -21 13 0 31 32 34 38 4z m-2284 -15 c8 -13 -11 -35 -23 -28
-16 10 -14 36 3 36 8 0 17 -4 20 -8z m121 -32 c18 -7 16 -10 -17 -24 -42 -18
-85 -20 -108 -6 -17 11 -14 14 25 28 36 13 73 14 100 2z m1893 -42 c37 -63 37
-122 -1 -80 -18 20 -56 101 -57 120 0 21 36 -4 58 -40z m-2148 11 c-50 -42
-110 -73 -110 -56 0 31 79 85 125 86 17 0 14 -5 -15 -30z m1968 -25 c31 -9 28
-20 -9 -33 -23 -8 -43 -8 -71 0 -45 12 -44 18 4 29 44 11 49 11 76 4z m112
-10 c0 -9 -7 -14 -17 -12 -25 5 -28 28 -4 28 12 0 21 -6 21 -16z m-2050 -25
c0 -12 -29 -24 -37 -16 -3 4 -3 13 0 21 6 16 37 11 37 -5z m55 -10 c0 -7 -8
-15 -17 -17 -18 -3 -25 18 -11 32 10 10 28 1 28 -15z m1973 -16 c-2 -10 -10
-18 -18 -18 -8 0 -16 8 -18 18 -2 12 3 17 18 17 15 0 20 -5 18 -17z m50 -6 c2
-10 -3 -17 -12 -17 -18 0 -29 16 -21 31 9 14 29 6 33 -14z m-2058 -25 c0 -24
-8 -32 -26 -25 -22 8 -17 43 6 43 13 0 20 -7 20 -18z m56 -37 c-7 -26 -60 -60
-77 -49 -7 4 7 24 32 50 44 45 56 44 45 -1z m106 -9 c17 -30 27 -107 15 -103
-23 7 -47 54 -54 102 -6 46 -5 49 11 36 9 -8 22 -24 28 -35z m1673 33 c10 -15
-1 -23 -20 -15 -9 3 -13 10 -10 16 8 13 22 13 30 -1z m63 -11 c-3 -7 -11 -13
-18 -13 -7 0 -15 6 -17 13 -3 7 4 12 17 12 13 0 20 -5 18 -12z m118 -61 c19
-36 8 -54 -18 -30 -27 24 -50 71 -42 84 8 13 41 -16 60 -54z m-73 7 c9 -10 -4
-34 -18 -34 -17 0 -28 17 -20 30 7 11 28 13 38 4z m-63 -19 c0 -20 -76 -102
-85 -93 -12 12 7 52 37 80 34 32 48 35 48 13z m66 -54 c-4 -5 -13 -8 -22 -4
-11 4 -12 8 -3 20 14 16 36 2 25 -16z"/>
<path d="M1300 1314 c-17 -15 -37 -39 -45 -55 -16 -29 -20 -145 -7 -165 4 -6
23 -15 42 -19 43 -9 83 -33 75 -45 -7 -12 -51 -3 -82 16 -21 13 -23 13 -23 -6
0 -12 -4 -19 -8 -16 -5 3 -16 -8 -25 -24 l-17 -28 88 20 c124 28 258 48 323
48 31 0 70 3 87 6 29 6 31 9 25 38 -3 17 -12 43 -19 57 -15 30 -68 89 -81 89
-5 0 -16 -13 -26 -29 -53 -90 -207 -67 -207 32 0 57 72 101 108 65 22 -22 14
-41 -14 -34 -57 15 -81 -16 -48 -62 35 -50 134 -13 134 50 0 21 -9 29 -57 51
-32 14 -75 29 -95 32 -33 6 -41 3 -69 -24 -29 -30 -31 -35 -25 -84 4 -33 2
-64 -5 -83 l-11 -29 -14 30 c-20 46 -16 85 15 143 33 58 28 65 -19 26z"/>
<path d="M2030 1321 c-63 -20 -90 -41 -90 -72 0 -44 39 -79 89 -79 50 0 73 22
69 64 -4 39 -31 46 -63 16 -18 -17 -24 -18 -28 -7 -7 18 32 57 57 57 52 0 83
-45 66 -96 -14 -41 -53 -64 -111 -64 -35 0 -47 6 -79 38 -20 20 -39 44 -42 52
-13 38 -118 -110 -118 -166 0 -20 7 -23 63 -29 34 -4 139 -19 232 -35 94 -15
192 -31 219 -35 l50 -7 -32 27 c-18 15 -32 35 -32 45 0 28 -20 35 -21 8 -1
-17 -2 -19 -6 -5 -4 16 -8 15 -35 -8 -31 -26 -62 -34 -56 -12 3 6 23 25 46 40
41 28 42 30 42 85 0 66 -25 127 -66 166 -41 37 -45 33 -18 -20 30 -60 38 -102
25 -137 -19 -48 -32 -20 -29 60 3 71 2 76 -25 99 -28 24 -61 29 -107 15z"/>
<path d="M1745 1250 c-8 -13 4 -88 15 -95 13 -8 22 63 10 85 -12 23 -16 24
-25 10z"/>
<path d="M2700 1162 c1 -12 30 -46 30 -35 0 7 8 13 18 15 12 3 7 7 -15 15 -18
7 -33 9 -33 5z"/>
<path d="M2375 1087 c-18 -28 -17 -58 2 -64 7 -3 13 8 15 24 2 22 9 29 29 31
37 4 56 -22 42 -59 -9 -23 -9 -29 3 -29 16 0 34 31 34 58 0 27 -31 52 -73 59
-30 4 -37 2 -52 -20z"/>
<path d="M1039 1076 c-7 -15 -8 -35 -3 -53 8 -28 8 -28 12 9 2 25 11 43 25 53
l21 15 -22 0 c-14 0 -27 -9 -33 -24z"/>
<path d="M1121 1090 c11 -6 15 -18 11 -35 -2 -15 0 -25 7 -25 6 0 11 10 11 23
0 24 -17 47 -34 47 -6 0 -4 -5 5 -10z"/>
<path d="M1080 1056 c0 -8 5 -18 10 -21 6 -3 10 3 10 14 0 12 -4 21 -10 21 -5
0 -10 -6 -10 -14z"/>
<path d="M2420 1035 c1 -26 2 -28 11 -12 8 14 8 22 0 30 -8 8 -11 3 -11 -18z"/>
<path d="M1080 994 c0 -15 35 -28 50 -19 19 11 10 23 -20 27 -20 3 -30 0 -30
-8z"/>
<path d="M1490 1004 c-14 -3 -81 -16 -150 -30 -132 -28 -216 -34 -263 -21
l-29 8 7 -78 c10 -111 20 -123 101 -123 36 0 101 9 145 20 326 84 460 87 797
20 177 -35 289 -39 320 -12 12 9 28 44 37 78 22 88 21 96 -11 84 -45 -17 -154
-10 -339 21 -153 27 -210 32 -385 34 -113 2 -216 1 -230 -1z m178 -30 c3 -15
1 -17 -9 -6 -28 26 -39 14 -32 -35 3 -27 10 -50 15 -51 20 -8 -6 -22 -40 -21
-20 0 -31 3 -24 6 13 5 15 66 3 97 -7 17 -8 17 -23 2 -11 -11 -19 -13 -23 -5
-12 18 7 28 60 32 66 4 69 4 73 -19z m126 16 c29 -11 34 -31 11 -50 -12 -10
-12 -15 2 -36 8 -13 20 -24 27 -24 6 0 27 25 46 55 19 30 37 51 41 47 3 -4 14
-29 24 -57 33 -91 48 -97 63 -23 7 39 7 55 -1 60 -15 10 -1 10 42 2 25 -5 29
-9 17 -18 -8 -6 -17 -32 -21 -58 -6 -44 -5 -48 15 -48 12 0 31 5 42 11 18 10
20 9 15 -6 -5 -11 -3 -15 5 -13 15 5 31 65 25 90 -4 13 0 18 16 18 22 0 62
-20 41 -20 -11 0 -36 -89 -28 -102 12 -19 32 -4 63 48 18 31 37 52 41 47 5 -4
19 -35 33 -68 l24 -61 -35 4 c-19 3 -29 7 -24 11 6 4 7 12 3 20 -10 16 -57 10
-53 -7 3 -16 -1 -16 -157 14 -169 32 -162 30 -155 49 6 14 3 16 -38 19 -7 1
-12 -7 -10 -17 5 -28 -77 -12 -105 22 -22 25 -22 25 -23 4 0 -12 6 -24 13 -26
6 -3 -8 -6 -33 -6 -29 0 -40 2 -31 8 9 6 12 25 10 65 l-4 56 37 0 c20 0 48 -4
62 -10z m-279 -48 c-2 -2 -12 2 -23 9 -21 13 -57 5 -47 -11 3 -5 21 -12 41
-16 70 -13 58 -79 -16 -86 -31 -3 -35 0 -39 22 -3 24 -3 25 17 7 23 -21 57
-19 57 3 0 8 -14 17 -31 20 -42 9 -54 18 -54 39 0 24 18 38 55 43 20 2 32 -2
36 -12 4 -8 5 -16 4 -18z m-118 4 c-3 -7 -1 -33 5 -56 10 -40 9 -45 -11 -62
-27 -21 -74 -24 -89 -5 -6 6 -13 29 -17 50 -4 20 -12 37 -18 37 -20 0 7 17 37
24 24 6 27 5 19 -6 -7 -9 -7 -25 1 -53 10 -33 16 -40 36 -40 23 0 25 3 23 49
-1 27 -7 52 -14 56 -8 6 -6 9 7 13 10 2 21 5 23 6 2 0 1 -5 -2 -13z m-157 -96
c24 -35 35 -60 28 -60 -7 0 -24 -3 -38 -6 -15 -4 -20 -2 -13 3 7 5 9 14 3 23
-7 11 -13 12 -36 1 -20 -9 -24 -15 -15 -20 10 -6 9 -10 -5 -15 -9 -3 -18 -5
-20 -3 -4 4 46 137 52 137 2 0 22 -27 44 -60z"/>
<path d="M1746 983 c-3 -4 -6 -15 -6 -25 0 -24 33 -21 38 3 3 17 -21 33 -32
22z"/>
<path d="M1886 925 c-3 -9 0 -15 9 -15 16 0 20 16 6 24 -5 3 -11 -1 -15 -9z"/>
<path d="M2246 855 c-3 -9 0 -15 9 -15 8 0 15 7 15 15 0 8 -4 15 -9 15 -5 0
-11 -7 -15 -15z"/>
<path d="M1180 845 c0 -8 7 -15 16 -15 14 0 14 3 4 15 -7 8 -14 15 -16 15 -2
0 -4 -7 -4 -15z"/>
<path d="M2370 975 c0 -17 18 -19 38 -6 11 7 10 10 -3 15 -26 10 -35 7 -35 -9z"/>
<path d="M1675 810 c3 -5 8 -10 11 -10 2 0 4 5 4 10 0 6 -5 10 -11 10 -5 0 -7
-4 -4 -10z"/>
<path d="M1730 794 c-10 -25 1 -54 19 -54 22 1 33 20 26 49 -8 38 -32 41 -45
5z"/>
<path d="M1605 790 c-8 -13 5 -13 25 0 13 8 13 10 -2 10 -9 0 -20 -4 -23 -10z"/>
<path d="M1628 769 c-25 -14 -22 -46 4 -55 24 -7 48 17 48 48 0 20 -25 23 -52
7z"/>
<path d="M1847 767 c-26 -18 -14 -67 17 -67 34 0 48 15 44 46 -3 33 -32 43
-61 21z"/>
<path d="M1932 735 c0 -16 2 -22 5 -12 2 9 2 23 0 30 -3 6 -5 -1 -5 -18z"/>
<path d="M1581 723 c-1 -22 25 -43 51 -43 7 1 2 7 -11 14 -14 8 -28 22 -32 32
-7 17 -8 17 -8 -3z"/>
<path d="M1731 630 c-12 -29 -19 -56 -14 -60 4 -5 29 -6 56 -3 58 7 62 27 14
80 l-33 36 -23 -53z"/>
<path d="M1570 640 c-18 -12 -2 -12 25 0 13 6 15 9 5 9 -8 0 -22 -4 -30 -9z"/>
<path d="M1910 635 c14 -8 30 -14 35 -14 6 0 -1 6 -15 14 -14 8 -29 14 -35 14
-5 0 1 -6 15 -14z"/>
<path d="M1875 580 c9 -16 18 -30 21 -30 2 0 -2 14 -11 30 -9 17 -18 30 -21
30 -2 0 2 -13 11 -30z"/>
<path d="M1383 590 c-13 -5 -23 -12 -23 -16 0 -8 70 5 90 17 21 12 -37 11 -67
-1z"/>
<path d="M2040 573 c0 -11 73 -33 86 -25 10 5 -1 11 -36 18 -27 6 -50 9 -50 7z"/>
<path d="M1690 541 c0 -15 27 -20 84 -14 84 9 78 23 -8 23 -42 0 -76 -4 -76
-9z"/>
</g>
</svg>
